<?xml version="1.0"?>
<!-- Created by MetaPost 2.000 on 2018.02.07:1749 -->
<svg version="1.1" xmlns="http://www.w3.org/2000/svg" xmlns:xlink="http://www.w3.org/1999/xlink" width="487.889664" height="431.196762" viewBox="0 0 487.889664 431.196762">
<!-- Original BoundingBox: -200.425156 -143.732254 287.464508 287.464508 -->
  <defs>
    <g transform="scale(0.009963,0.009963)" id="GLYPHcmr10_55">
      <path style="fill-rule: evenodd;" d="M476.000000 -609.000000C485.000000 -621.000000,485.000000 -623.000000,485.000000 -644.000000L242.000000 -644.000000C120.000000 -644.000000,118.000000 -657.000000,114.000000 -676.000000L89.000000 -676.000000L56.000000 -470.000000L81.000000 -470.000000C84.000000 -486.000000,93.000000 -549.000000,106.000000 -561.000000C113.000000 -567.000000,191.000000 -567.000000,204.000000 -567.000000L411.000000 -567.000000C400.000000 -551.000000,321.000000 -442.000000,299.000000 -409.000000C209.000000 -274.000000,176.000000 -135.000000,176.000000 -33.000000C176.000000 -23.000000,176.000000 22.000000,222.000000 22.000000C268.000000 22.000000,268.000000 -23.000000,268.000000 -33.000000L268.000000 -84.000000C268.000000 -139.000000,271.000000 -194.000000,279.000000 -248.000000C283.000000 -271.000000,297.000000 -357.000000,341.000000 -419.000000"></path>
    </g>
    <g transform="scale(0.009963,0.009963)" id="GLYPHcmr10_56">
      <path style="fill-rule: evenodd;" d="M163.000000 -457.000000C117.000000 -487.000000,113.000000 -521.000000,113.000000 -538.000000C113.000000 -599.000000,178.000000 -641.000000,249.000000 -641.000000C322.000000 -641.000000,386.000000 -589.000000,386.000000 -517.000000C386.000000 -460.000000,347.000000 -412.000000,287.000000 -377.000000M309.000000 -362.000000C381.000000 -399.000000,430.000000 -451.000000,430.000000 -517.000000C430.000000 -609.000000,341.000000 -666.000000,250.000000 -666.000000C150.000000 -666.000000,69.000000 -592.000000,69.000000 -499.000000C69.000000 -481.000000,71.000000 -436.000000,113.000000 -389.000000C124.000000 -377.000000,161.000000 -352.000000,186.000000 -335.000000C128.000000 -306.000000,42.000000 -250.000000,42.000000 -151.000000C42.000000 -45.000000,144.000000 22.000000,249.000000 22.000000C362.000000 22.000000,457.000000 -61.000000,457.000000 -168.000000C457.000000 -204.000000,446.000000 -249.000000,408.000000 -291.000000C389.000000 -312.000000,373.000000 -322.000000,309.000000 -362.000000M209.000000 -320.000000L332.000000 -242.000000C360.000000 -223.000000,407.000000 -193.000000,407.000000 -132.000000C407.000000 -58.000000,332.000000 -6.000000,250.000000 -6.000000C164.000000 -6.000000,92.000000 -68.000000,92.000000 -151.000000C92.000000 -209.000000,124.000000 -273.000000,209.000000 -320.000000"></path>
    </g>
    <g transform="scale(0.009963,0.009963)" id="GLYPHcmr10_65">
      <path style="fill-rule: evenodd;" d="M398.000000 -696.000000C393.000000 -709.000000,391.000000 -716.000000,375.000000 -716.000000C359.000000 -716.000000,356.000000 -710.000000,351.000000 -696.000000L144.000000 -98.000000C126.000000 -47.000000,86.000000 -32.000000,32.000000 -31.000000L32.000000 -0.000000C55.000000 -1.000000,98.000000 -3.000000,134.000000 -3.000000C165.000000 -3.000000,217.000000 -1.000000,249.000000 -0.000000L249.000000 -31.000000C199.000000 -31.000000,174.000000 -56.000000,174.000000 -82.000000C174.000000 -85.000000,175.000000 -95.000000,176.000000 -97.000000L222.000000 -228.000000L469.000000 -228.000000L522.000000 -75.000000C523.000000 -71.000000,525.000000 -65.000000,525.000000 -61.000000C525.000000 -31.000000,469.000000 -31.000000,442.000000 -31.000000L442.000000 -0.000000C478.000000 -3.000000,548.000000 -3.000000,586.000000 -3.000000C629.000000 -3.000000,675.000000 -2.000000,717.000000 -0.000000L717.000000 -31.000000L699.000000 -31.000000C639.000000 -31.000000,625.000000 -38.000000,614.000000 -71.000000M345.000000 -584.000000L458.000000 -259.000000L233.000000 -259.000000"></path>
    </g>
    <g transform="scale(0.009963,0.009963)" id="GLYPHcmr10_79">
      <path style="fill-rule: evenodd;" d="M721.000000 -339.000000C721.000000 -543.000000,570.000000 -705.000000,388.000000 -705.000000C209.000000 -705.000000,56.000000 -545.000000,56.000000 -339.000000C56.000000 -134.000000,210.000000 22.000000,388.000000 22.000000C570.000000 22.000000,721.000000 -137.000000,721.000000 -339.000000M389.000000 -4.000000C293.000000 -4.000000,159.000000 -92.000000,159.000000 -353.000000C159.000000 -612.000000,305.000000 -680.000000,388.000000 -680.000000C475.000000 -680.000000,618.000000 -609.000000,618.000000 -353.000000C618.000000 -88.000000,481.000000 -4.000000,389.000000 -4.000000"></path>
    </g>
    <g transform="scale(0.009963,0.009963)" id="GLYPHcmr10_97">
      <path style="fill-rule: evenodd;" d="M333.000000 -76.000000C337.000000 -36.000000,364.000000 6.000000,411.000000 6.000000C432.000000 6.000000,493.000000 -8.000000,493.000000 -89.000000L493.000000 -145.000000L468.000000 -145.000000L468.000000 -89.000000C468.000000 -31.000000,443.000000 -25.000000,432.000000 -25.000000C399.000000 -25.000000,395.000000 -70.000000,395.000000 -75.000000L395.000000 -275.000000C395.000000 -317.000000,395.000000 -356.000000,359.000000 -393.000000C320.000000 -432.000000,270.000000 -448.000000,222.000000 -448.000000C140.000000 -448.000000,71.000000 -401.000000,71.000000 -335.000000C71.000000 -305.000000,91.000000 -288.000000,117.000000 -288.000000C145.000000 -288.000000,163.000000 -308.000000,163.000000 -334.000000C163.000000 -346.000000,158.000000 -379.000000,112.000000 -380.000000C139.000000 -415.000000,188.000000 -426.000000,220.000000 -426.000000C269.000000 -426.000000,326.000000 -387.000000,326.000000 -298.000000L326.000000 -261.000000C275.000000 -258.000000,205.000000 -255.000000,142.000000 -225.000000C67.000000 -191.000000,42.000000 -139.000000,42.000000 -95.000000C42.000000 -14.000000,139.000000 11.000000,202.000000 11.000000C268.000000 11.000000,314.000000 -29.000000,333.000000 -76.000000M326.000000 -240.000000L326.000000 -140.000000C326.000000 -45.000000,254.000000 -11.000000,209.000000 -11.000000C160.000000 -11.000000,119.000000 -46.000000,119.000000 -96.000000C119.000000 -151.000000,161.000000 -234.000000,326.000000 -240.000000"></path>
    </g>
    <g transform="scale(0.009963,0.009963)" id="GLYPHcmr10_98">
      <path style="fill-rule: evenodd;" d="M172.000000 -377.000000L172.000000 -694.000000L28.000000 -683.000000L28.000000 -652.000000C98.000000 -652.000000,106.000000 -645.000000,106.000000 -596.000000L106.000000 -0.000000L131.000000 -0.000000C132.000000 -1.000000,140.000000 -15.000000,167.000000 -62.000000C182.000000 -39.000000,224.000000 11.000000,298.000000 11.000000C417.000000 11.000000,521.000000 -87.000000,521.000000 -216.000000C521.000000 -343.000000,423.000000 -442.000000,309.000000 -442.000000C231.000000 -442.000000,188.000000 -395.000000,172.000000 -377.000000M175.000000 -114.000000L175.000000 -320.000000C175.000000 -339.000000,175.000000 -340.000000,186.000000 -356.000000C225.000000 -412.000000,280.000000 -420.000000,304.000000 -420.000000C349.000000 -420.000000,385.000000 -394.000000,409.000000 -356.000000C435.000000 -315.000000,438.000000 -258.000000,438.000000 -217.000000C438.000000 -180.000000,436.000000 -120.000000,407.000000 -75.000000C386.000000 -44.000000,348.000000 -11.000000,294.000000 -11.000000C249.000000 -11.000000,213.000000 -35.000000,189.000000 -72.000000C175.000000 -93.000000,175.000000 -96.000000,175.000000 -114.000000"></path>
    </g>
    <g transform="scale(0.009963,0.009963)" id="GLYPHcmr10_103">
      <path style="fill-rule: evenodd;" d="M222.000000 -172.000000C135.000000 -172.000000,135.000000 -272.000000,135.000000 -295.000000C135.000000 -322.000000,136.000000 -354.000000,151.000000 -379.000000C159.000000 -391.000000,182.000000 -419.000000,222.000000 -419.000000C309.000000 -419.000000,309.000000 -319.000000,309.000000 -296.000000C309.000000 -269.000000,308.000000 -237.000000,293.000000 -212.000000C285.000000 -200.000000,262.000000 -172.000000,222.000000 -172.000000M106.000000 -133.000000C106.000000 -137.000000,106.000000 -160.000000,123.000000 -180.000000C162.000000 -152.000000,203.000000 -149.000000,222.000000 -149.000000C315.000000 -149.000000,384.000000 -218.000000,384.000000 -295.000000C384.000000 -332.000000,368.000000 -369.000000,343.000000 -392.000000C379.000000 -426.000000,415.000000 -431.000000,433.000000 -431.000000C435.000000 -431.000000,440.000000 -431.000000,443.000000 -430.000000C432.000000 -426.000000,427.000000 -415.000000,427.000000 -403.000000C427.000000 -386.000000,440.000000 -374.000000,456.000000 -374.000000C466.000000 -374.000000,485.000000 -381.000000,485.000000 -404.000000C485.000000 -421.000000,473.000000 -453.000000,434.000000 -453.000000C414.000000 -453.000000,370.000000 -447.000000,328.000000 -406.000000C286.000000 -439.000000,244.000000 -442.000000,222.000000 -442.000000C129.000000 -442.000000,60.000000 -373.000000,60.000000 -296.000000C60.000000 -252.000000,82.000000 -214.000000,107.000000 -193.000000C94.000000 -178.000000,76.000000 -145.000000,76.000000 -110.000000C76.000000 -79.000000,89.000000 -41.000000,120.000000 -21.000000C60.000000 -4.000000,28.000000 39.000000,28.000000 79.000000C28.000000 151.000000,127.000000 206.000000,249.000000 206.000000C367.000000 206.000000,471.000000 155.000000,471.000000 77.000000C471.000000 42.000000,457.000000 -9.000000,406.000000 -37.000000C353.000000 -65.000000,295.000000 -65.000000,234.000000 -65.000000C209.000000 -65.000000,166.000000 -65.000000,159.000000 -66.000000C127.000000 -70.000000,106.000000 -101.000000,106.000000 -133.000000M250.000000 183.000000C149.000000 183.000000,80.000000 132.000000,80.000000 79.000000C80.000000 33.000000,118.000000 -4.000000,162.000000 -7.000000L221.000000 -7.000000C307.000000 -7.000000,419.000000 -7.000000,419.000000 79.000000C419.000000 133.000000,348.000000 183.000000,250.000000 183.000000"></path>
    </g>
    <g transform="scale(0.009963,0.009963)" id="GLYPHcmr10_105">
      <path style="fill-rule: evenodd;" d="M177.000000 -442.000000L37.000000 -431.000000L37.000000 -400.000000C102.000000 -400.000000,111.000000 -394.000000,111.000000 -345.000000L111.000000 -76.000000C111.000000 -31.000000,100.000000 -31.000000,33.000000 -31.000000L33.000000 -0.000000C65.000000 -1.000000,119.000000 -3.000000,143.000000 -3.000000C178.000000 -3.000000,213.000000 -1.000000,247.000000 -0.000000L247.000000 -31.000000C181.000000 -31.000000,177.000000 -36.000000,177.000000 -75.000000M181.000000 -616.000000C181.000000 -648.000000,156.000000 -669.000000,128.000000 -669.000000C97.000000 -669.000000,75.000000 -642.000000,75.000000 -616.000000C75.000000 -589.000000,97.000000 -563.000000,128.000000 -563.000000C156.000000 -563.000000,181.000000 -584.000000,181.000000 -616.000000"></path>
    </g>
    <g transform="scale(0.009963,0.009963)" id="GLYPHcmr10_110">
      <path style="fill-rule: evenodd;" d="M110.000000 -344.000000L110.000000 -76.000000C110.000000 -31.000000,99.000000 -31.000000,32.000000 -31.000000L32.000000 -0.000000C67.000000 -1.000000,118.000000 -3.000000,145.000000 -3.000000C171.000000 -3.000000,223.000000 -1.000000,257.000000 -0.000000L257.000000 -31.000000C190.000000 -31.000000,179.000000 -31.000000,179.000000 -76.000000L179.000000 -260.000000C179.000000 -364.000000,250.000000 -420.000000,314.000000 -420.000000C377.000000 -420.000000,388.000000 -366.000000,388.000000 -309.000000L388.000000 -76.000000C388.000000 -31.000000,377.000000 -31.000000,310.000000 -31.000000L310.000000 -0.000000C345.000000 -1.000000,396.000000 -3.000000,423.000000 -3.000000C449.000000 -3.000000,501.000000 -1.000000,535.000000 -0.000000L535.000000 -31.000000C483.000000 -31.000000,458.000000 -31.000000,457.000000 -61.000000L457.000000 -252.000000C457.000000 -338.000000,457.000000 -369.000000,426.000000 -405.000000C412.000000 -422.000000,379.000000 -442.000000,321.000000 -442.000000C248.000000 -442.000000,201.000000 -399.000000,173.000000 -337.000000L173.000000 -442.000000L32.000000 -431.000000L32.000000 -400.000000C102.000000 -400.000000,110.000000 -393.000000,110.000000 -344.000000"></path>
    </g>
    <g transform="scale(0.009963,0.009963)" id="GLYPHcmr10_114">
      <path style="fill-rule: evenodd;" d="M167.000000 -332.000000L167.000000 -442.000000L28.000000 -431.000000L28.000000 -400.000000C98.000000 -400.000000,106.000000 -393.000000,106.000000 -344.000000L106.000000 -76.000000C106.000000 -31.000000,95.000000 -31.000000,28.000000 -31.000000L28.000000 -0.000000C67.000000 -1.000000,114.000000 -3.000000,142.000000 -3.000000C182.000000 -3.000000,229.000000 -3.000000,269.000000 -0.000000L269.000000 -31.000000L248.000000 -31.000000C174.000000 -31.000000,172.000000 -42.000000,172.000000 -78.000000L172.000000 -232.000000C172.000000 -331.000000,214.000000 -420.000000,290.000000 -420.000000C297.000000 -420.000000,299.000000 -420.000000,301.000000 -419.000000C298.000000 -418.000000,278.000000 -406.000000,278.000000 -380.000000C278.000000 -352.000000,299.000000 -337.000000,321.000000 -337.000000C339.000000 -337.000000,364.000000 -349.000000,364.000000 -381.000000C364.000000 -413.000000,333.000000 -442.000000,290.000000 -442.000000C217.000000 -442.000000,181.000000 -375.000000,167.000000 -332.000000"></path>
    </g>
    <g transform="scale(0.009963,0.009963)" id="GLYPHcmr10_122">
      <path style="fill-rule: evenodd;" d="M390.000000 -401.000000C399.000000 -412.000000,399.000000 -414.000000,399.000000 -418.000000C399.000000 -431.000000,391.000000 -431.000000,373.000000 -431.000000L53.000000 -431.000000L42.000000 -270.000000L67.000000 -270.000000C73.000000 -372.000000,92.000000 -409.000000,202.000000 -409.000000L316.000000 -409.000000L37.000000 -32.000000C28.000000 -21.000000,28.000000 -19.000000,28.000000 -14.000000C28.000000 -0.000000,35.000000 -0.000000,54.000000 -0.000000L384.000000 -0.000000L401.000000 -187.000000L376.000000 -187.000000C367.000000 -69.000000,346.000000 -25.000000,230.000000 -25.000000L112.000000 -25.000000"></path>
    </g>
  </defs>
  <path d="M200.000000 287.000000L341.732254 145.267746" style="stroke:rgb(0.000000%,0.000000%,0.000000%); stroke-width: 0.500000;stroke-linecap: round;stroke-linejoin: round;stroke-miterlimit: 10.000000;fill: none;"></path>
  <path d="M341.732254 287.000000L483.464508 145.267746" style="stroke:rgb(0.000000%,0.000000%,0.000000%); stroke-width: 3.985046;stroke-linecap: round;stroke-linejoin: round;stroke-miterlimit: 10.000000;fill: none;"></path>
  <path d="M200.000000 287.000000l0 0" style="stroke:rgb(0.000000%,0.000000%,0.000000%); stroke-width: 8.000000;stroke-linecap: round;stroke-linejoin: round;stroke-miterlimit: 10.000000;fill: none;"></path>
  <path d="M270.866135 287.000000l0 0" style="stroke:rgb(0.000000%,0.000000%,0.000000%); stroke-width: 8.000000;stroke-linecap: round;stroke-linejoin: round;stroke-miterlimit: 10.000000;fill: none;"></path>
  <path d="M426.771606 287.000000L426.771606 258.653549L483.464508 258.653549L483.464508 287.000000Z" style="stroke:rgb(0.000000%,0.000000%,0.000000%); stroke-width: 8.000000;stroke-linecap: round;stroke-linejoin: round;stroke-miterlimit: 10.000000;fill: none;"></path>
  <g transform="translate(423.035599 296.807800)" style="fill: rgb(0.000000%,0.000000%,0.000000%);">
    <use xlink:href="#GLYPHcmr10_65"></use>
  </g>
  <path d="M426.771606 287.000000l0 0" style="stroke:rgb(0.000000%,0.000000%,0.000000%); stroke-width: 3.000000;stroke-linecap: round;stroke-linejoin: round;stroke-miterlimit: 10.000000;fill: none;"></path>
  <path d="M200.000000 287.000000C278.276566 287.000000,341.732254 223.544312,341.732254 145.267746C341.732254 66.991180,278.276566 3.535492,200.000000 3.535492C121.723434 3.535492,58.267746 66.991180,58.267746 145.267746" style="stroke:rgb(0.000000%,0.000000%,0.000000%); stroke-width: 8.000000;stroke-linecap: round;stroke-linejoin: round;stroke-miterlimit: 10.000000;fill: none;"></path>
  <g transform="translate(202.099991 295.907791)" style="fill: rgb(0.000000%,0.000000%,0.000000%);">
    <use xlink:href="#GLYPHcmr10_79"></use>
    <use xlink:href="#GLYPHcmr10_114" x="7.777925"></use>
    <use xlink:href="#GLYPHcmr10_105" x="11.694672"></use>
    <use xlink:href="#GLYPHcmr10_103" x="14.472502"></use>
    <use xlink:href="#GLYPHcmr10_105" x="19.472597"></use>
    <use xlink:href="#GLYPHcmr10_110" x="22.250427"></use>
  </g>
  <path d="M285.039352 287.000000l0 0" style="stroke:rgb(0.000000%,0.000000%,0.000000%); stroke-width: 3.985046;stroke-linecap: round;stroke-linejoin: round;stroke-miterlimit: 10.000000;fill: none;"></path>
  <path d="M285.039352 258.653549l0 0" style="stroke:rgb(0.000000%,0.000000%,0.000000%); stroke-width: 3.985046;stroke-linecap: round;stroke-linejoin: round;stroke-miterlimit: 10.000000;fill: none;"></path>
  <path d="M285.039352 230.307098l0 0" style="stroke:rgb(0.000000%,0.000000%,0.000000%); stroke-width: 3.985046;stroke-linecap: round;stroke-linejoin: round;stroke-miterlimit: 10.000000;fill: none;"></path>
  <path d="M285.039352 201.960648l0 0" style="stroke:rgb(0.000000%,0.000000%,0.000000%); stroke-width: 3.985046;stroke-linecap: round;stroke-linejoin: round;stroke-miterlimit: 10.000000;fill: none;"></path>
  <path d="M285.039352 173.614197l0 0" style="stroke:rgb(0.000000%,0.000000%,0.000000%); stroke-width: 3.985046;stroke-linecap: round;stroke-linejoin: round;stroke-miterlimit: 10.000000;fill: none;"></path>
  <path d="M285.039352 145.267746l0 0" style="stroke:rgb(0.000000%,0.000000%,0.000000%); stroke-width: 3.985046;stroke-linecap: round;stroke-linejoin: round;stroke-miterlimit: 10.000000;fill: none;"></path>
  <path d="M313.385803 287.000000l0 0" style="stroke:rgb(0.000000%,0.000000%,0.000000%); stroke-width: 3.985046;stroke-linecap: round;stroke-linejoin: round;stroke-miterlimit: 10.000000;fill: none;"></path>
  <path d="M313.385803 230.307098l0 0" style="stroke:rgb(0.000000%,0.000000%,0.000000%); stroke-width: 3.985046;stroke-linecap: round;stroke-linejoin: round;stroke-miterlimit: 10.000000;fill: none;"></path>
  <path d="M313.385803 173.614197l0 0" style="stroke:rgb(0.000000%,0.000000%,0.000000%); stroke-width: 3.985046;stroke-linecap: round;stroke-linejoin: round;stroke-miterlimit: 10.000000;fill: none;"></path>
  <path d="M313.385803 116.921295l0 0" style="stroke:rgb(0.000000%,0.000000%,0.000000%); stroke-width: 3.985046;stroke-linecap: round;stroke-linejoin: round;stroke-miterlimit: 10.000000;fill: none;"></path>
  <path d="M313.385803 60.228394l0 0" style="stroke:rgb(0.000000%,0.000000%,0.000000%); stroke-width: 3.985046;stroke-linecap: round;stroke-linejoin: round;stroke-miterlimit: 10.000000;fill: none;"></path>
  <path d="M313.385803 3.535492l0 0" style="stroke:rgb(0.000000%,0.000000%,0.000000%); stroke-width: 3.985046;stroke-linecap: round;stroke-linejoin: round;stroke-miterlimit: 10.000000;fill: none;"></path>
  <path d="M285.039352 287.000000l0 0" style="stroke:rgb(0.000000%,0.000000%,0.000000%); stroke-width: 3.985046;stroke-linecap: round;stroke-linejoin: round;stroke-miterlimit: 10.000000;fill: none;"></path>
  <path d="M285.039352 315.346451l0 0" style="stroke:rgb(0.000000%,0.000000%,0.000000%); stroke-width: 3.985046;stroke-linecap: round;stroke-linejoin: round;stroke-miterlimit: 10.000000;fill: none;"></path>
  <path d="M285.039352 343.692902l0 0" style="stroke:rgb(0.000000%,0.000000%,0.000000%); stroke-width: 3.985046;stroke-linecap: round;stroke-linejoin: round;stroke-miterlimit: 10.000000;fill: none;"></path>
  <path d="M285.039352 372.039352l0 0" style="stroke:rgb(0.000000%,0.000000%,0.000000%); stroke-width: 3.985046;stroke-linecap: round;stroke-linejoin: round;stroke-miterlimit: 10.000000;fill: none;"></path>
  <path d="M285.039352 400.385803l0 0" style="stroke:rgb(0.000000%,0.000000%,0.000000%); stroke-width: 3.985046;stroke-linecap: round;stroke-linejoin: round;stroke-miterlimit: 10.000000;fill: none;"></path>
  <path d="M285.039352 428.732254l0 0" style="stroke:rgb(0.000000%,0.000000%,0.000000%); stroke-width: 3.985046;stroke-linecap: round;stroke-linejoin: round;stroke-miterlimit: 10.000000;fill: none;"></path>
  <path d="M285.039352 230.307098L114.960648 343.692902" style="stroke:rgb(0.000000%,0.000000%,0.000000%); stroke-width: 0.996262;stroke-linecap: round;stroke-linejoin: round;stroke-miterlimit: 10.000000;fill: none;"></path>
  <path d="M228.347321 268.101791l0 0" style="stroke:rgb(0.000000%,0.000000%,0.000000%); stroke-width: 8.000000;stroke-linecap: round;stroke-linejoin: round;stroke-miterlimit: 10.000000;fill: none;"></path>
  <g transform="translate(230.447311 276.622147)" style="fill: rgb(0.000000%,0.000000%,0.000000%);">
    <use xlink:href="#GLYPHcmr10_122"></use>
    <use xlink:href="#GLYPHcmr10_55" x="4.444529"></use>
  </g>
  <path d="M228.347321 268.101791l0 0" style="stroke:rgb(0.000000%,0.000000%,0.000000%); stroke-width: 3.000000;stroke-linecap: round;stroke-linejoin: round;stroke-miterlimit: 10.000000;fill: none;"></path>
  <path d="M171.652679 305.898209l0 0" style="stroke:rgb(0.000000%,0.000000%,0.000000%); stroke-width: 8.000000;stroke-linecap: round;stroke-linejoin: round;stroke-miterlimit: 10.000000;fill: none;"></path>
  <g transform="translate(173.752670 314.418564)" style="fill: rgb(0.000000%,0.000000%,0.000000%);">
    <use xlink:href="#GLYPHcmr10_122"></use>
    <use xlink:href="#GLYPHcmr10_56" x="4.444529"></use>
  </g>
  <path d="M171.652679 305.898209l0 0" style="stroke:rgb(0.000000%,0.000000%,0.000000%); stroke-width: 3.000000;stroke-linecap: round;stroke-linejoin: round;stroke-miterlimit: 10.000000;fill: none;"></path>
  <path d="M200.000000 287.000000L200.000000 230.307098L256.692902 230.307098L256.692902 287.000000Z" style="stroke:rgb(0.000000%,0.000000%,0.000000%); stroke-width: 4.000000;stroke-linecap: round;stroke-linejoin: round;stroke-miterlimit: 10.000000;fill: none;"></path>
  <path d="M256.692902 230.307098L256.692902 173.614197L313.385803 173.614197L313.385803 230.307098Z" style="stroke:rgb(0.000000%,0.000000%,100.000000%); stroke-width: 4.000000;stroke-linecap: round;stroke-dasharray: 3.000000 3.000000 ;stroke-linejoin: round;stroke-miterlimit: 10.000000;fill: none;"></path>
  <path d="M285.039352 201.960648L285.039352 145.267746L341.732254 145.267746L341.732254 201.960648Z" style="fill: rgb(0.000000%,0.000000%,100.000000%);stroke: none;"></path>
  <path d="M398.425156 287.000000C398.425156 196.257324,300.632004 145.267746,200.000000 145.267746C99.367996 145.267746,1.574844 196.257324,1.574844 287.000000C1.574844 377.742676,99.367996 428.732254,200.000000 428.732254C300.632004 428.732254,398.425156 377.742676,398.425156 287.000000Z" style="stroke:rgb(0.000000%,0.000000%,0.000000%); stroke-width: 4.000000;stroke-linecap: round;stroke-linejoin: round;stroke-miterlimit: 10.000000;fill: none;"></path>
  <path d="M1.574844 287.000000L200.000000 287.000000L200.000000 145.267746" style="stroke:rgb(0.000000%,0.000000%,0.000000%); stroke-width: 4.000000;stroke-linecap: round;stroke-linejoin: round;stroke-miterlimit: 10.000000;fill: none;"></path>
  <g transform="matrix(4.000000,-0.000000,-0.000000,4.000000,90.824753 284.000000)" style="fill: rgb(0.000000%,0.000000%,0.000000%);">
    <use xlink:href="#GLYPHcmr10_97"></use>
  </g>
  <g transform="matrix(4.000000,-0.000000,-0.000000,4.000000,174.860718 229.970871)" style="fill: rgb(0.000000%,0.000000%,0.000000%);">
    <use xlink:href="#GLYPHcmr10_98"></use>
  </g>
</svg>
