<?xml version="1.0"?>
<!-- Created by MetaPost 2.000 on 2018.02.06:1755 -->
<svg version="1.1" xmlns="http://www.w3.org/2000/svg" xmlns:xlink="http://www.w3.org/1999/xlink" width="79.407242" height="104.861099" viewBox="0 0 79.407242 104.861099">
<!-- Original BoundingBox: -6.998047 -13.361099 72.409195 91.500000 -->
  <defs>
    <g transform="scale(0.009963,0.009963)" id="GLYPHcmsy10_112">
      <path style="fill-rule: evenodd;" d="M389.000000 855.000000L213.000000 466.000000C206.000000 450.000000,201.000000 450.000000,198.000000 450.000000C197.000000 450.000000,192.000000 450.000000,181.000000 458.000000L86.000000 530.000000C73.000000 540.000000,73.000000 543.000000,73.000000 546.000000C73.000000 551.000000,76.000000 557.000000,83.000000 557.000000C89.000000 557.000000,106.000000 543.000000,117.000000 535.000000C123.000000 530.000000,138.000000 519.000000,149.000000 511.000000L346.000000 944.000000C353.000000 960.000000,358.000000 960.000000,367.000000 960.000000C382.000000 960.000000,385.000000 954.000000,392.000000 940.000000L846.000000 -0.000000C853.000000 -14.000000,853.000000 -18.000000,853.000000 -20.000000C853.000000 -30.000000,845.000000 -40.000000,833.000000 -40.000000C825.000000 -40.000000,818.000000 -35.000000,810.000000 -19.000000"></path>
    </g>
    <g transform="scale(0.009963,0.009963)" id="GLYPHcmmi10_120">
      <path style="fill-rule: evenodd;" d="M334.000000 -302.000000C340.000000 -328.000000,363.000000 -420.000000,433.000000 -420.000000C438.000000 -420.000000,462.000000 -420.000000,483.000000 -407.000000C455.000000 -402.000000,435.000000 -377.000000,435.000000 -353.000000C435.000000 -337.000000,446.000000 -318.000000,473.000000 -318.000000C495.000000 -318.000000,527.000000 -336.000000,527.000000 -376.000000C527.000000 -428.000000,468.000000 -442.000000,434.000000 -442.000000C376.000000 -442.000000,341.000000 -389.000000,329.000000 -366.000000C304.000000 -432.000000,250.000000 -442.000000,221.000000 -442.000000C117.000000 -442.000000,60.000000 -313.000000,60.000000 -288.000000C60.000000 -278.000000,70.000000 -278.000000,72.000000 -278.000000C80.000000 -278.000000,83.000000 -280.000000,85.000000 -289.000000C119.000000 -395.000000,185.000000 -420.000000,219.000000 -420.000000C238.000000 -420.000000,273.000000 -411.000000,273.000000 -353.000000C273.000000 -322.000000,256.000000 -255.000000,219.000000 -115.000000C203.000000 -53.000000,168.000000 -11.000000,124.000000 -11.000000C118.000000 -11.000000,95.000000 -11.000000,74.000000 -24.000000C99.000000 -29.000000,121.000000 -50.000000,121.000000 -78.000000C121.000000 -105.000000,99.000000 -113.000000,84.000000 -113.000000C54.000000 -113.000000,29.000000 -87.000000,29.000000 -55.000000C29.000000 -9.000000,79.000000 11.000000,123.000000 11.000000C189.000000 11.000000,225.000000 -59.000000,228.000000 -65.000000C240.000000 -28.000000,276.000000 11.000000,336.000000 11.000000C439.000000 11.000000,496.000000 -118.000000,496.000000 -143.000000C496.000000 -153.000000,487.000000 -153.000000,484.000000 -153.000000C475.000000 -153.000000,473.000000 -149.000000,471.000000 -142.000000C438.000000 -35.000000,370.000000 -11.000000,338.000000 -11.000000C299.000000 -11.000000,283.000000 -43.000000,283.000000 -77.000000C283.000000 -99.000000,289.000000 -121.000000,300.000000 -165.000000"></path>
    </g>
    <g transform="scale(0.009963,0.009963)" id="GLYPHcmr10_49">
      <path style="fill-rule: evenodd;" d="M294.000000 -640.000000C294.000000 -664.000000,294.000000 -666.000000,271.000000 -666.000000C209.000000 -602.000000,121.000000 -602.000000,89.000000 -602.000000L89.000000 -571.000000C109.000000 -571.000000,168.000000 -571.000000,220.000000 -597.000000L220.000000 -79.000000C220.000000 -43.000000,217.000000 -31.000000,127.000000 -31.000000L95.000000 -31.000000L95.000000 -0.000000C130.000000 -3.000000,217.000000 -3.000000,257.000000 -3.000000C297.000000 -3.000000,384.000000 -3.000000,419.000000 -0.000000L419.000000 -31.000000L387.000000 -31.000000C297.000000 -31.000000,294.000000 -42.000000,294.000000 -79.000000"></path>
    </g>
    <g transform="scale(0.009963,0.009963)" id="GLYPHcmr10_50">
      <path style="fill-rule: evenodd;" d="M127.000000 -77.000000L233.000000 -180.000000C389.000000 -318.000000,449.000000 -372.000000,449.000000 -472.000000C449.000000 -586.000000,359.000000 -666.000000,237.000000 -666.000000C124.000000 -666.000000,50.000000 -574.000000,50.000000 -485.000000C50.000000 -429.000000,100.000000 -429.000000,103.000000 -429.000000C120.000000 -429.000000,155.000000 -441.000000,155.000000 -482.000000C155.000000 -508.000000,137.000000 -534.000000,102.000000 -534.000000C94.000000 -534.000000,92.000000 -534.000000,89.000000 -533.000000C112.000000 -598.000000,166.000000 -635.000000,224.000000 -635.000000C315.000000 -635.000000,358.000000 -554.000000,358.000000 -472.000000C358.000000 -392.000000,308.000000 -313.000000,253.000000 -251.000000L61.000000 -37.000000C50.000000 -26.000000,50.000000 -24.000000,50.000000 -0.000000L421.000000 -0.000000L449.000000 -174.000000L424.000000 -174.000000C419.000000 -144.000000,412.000000 -100.000000,402.000000 -85.000000C395.000000 -77.000000,329.000000 -77.000000,307.000000 -77.000000"></path>
    </g>
    <g transform="scale(0.009963,0.009963)" id="GLYPHcmr10_51">
      <path style="fill-rule: evenodd;" d="M290.000000 -352.000000C372.000000 -379.000000,430.000000 -449.000000,430.000000 -528.000000C430.000000 -610.000000,342.000000 -666.000000,246.000000 -666.000000C145.000000 -666.000000,69.000000 -606.000000,69.000000 -530.000000C69.000000 -497.000000,91.000000 -478.000000,120.000000 -478.000000C151.000000 -478.000000,171.000000 -500.000000,171.000000 -529.000000C171.000000 -579.000000,124.000000 -579.000000,109.000000 -579.000000C140.000000 -628.000000,206.000000 -641.000000,242.000000 -641.000000C283.000000 -641.000000,338.000000 -619.000000,338.000000 -529.000000C338.000000 -517.000000,336.000000 -459.000000,310.000000 -415.000000C280.000000 -367.000000,246.000000 -364.000000,221.000000 -363.000000C213.000000 -362.000000,189.000000 -360.000000,182.000000 -360.000000C174.000000 -359.000000,167.000000 -358.000000,167.000000 -348.000000C167.000000 -337.000000,174.000000 -337.000000,191.000000 -337.000000L235.000000 -337.000000C317.000000 -337.000000,354.000000 -269.000000,354.000000 -171.000000C354.000000 -35.000000,285.000000 -6.000000,241.000000 -6.000000C198.000000 -6.000000,123.000000 -23.000000,88.000000 -82.000000C123.000000 -77.000000,154.000000 -99.000000,154.000000 -137.000000C154.000000 -173.000000,127.000000 -193.000000,98.000000 -193.000000C74.000000 -193.000000,42.000000 -179.000000,42.000000 -135.000000C42.000000 -44.000000,135.000000 22.000000,244.000000 22.000000C366.000000 22.000000,457.000000 -69.000000,457.000000 -171.000000C457.000000 -253.000000,394.000000 -331.000000,290.000000 -352.000000"></path>
    </g>
    <g transform="scale(0.009963,0.009963)" id="GLYPHcmr10_52">
      <path style="fill-rule: evenodd;" d="M294.000000 -165.000000L294.000000 -78.000000C294.000000 -42.000000,292.000000 -31.000000,218.000000 -31.000000L197.000000 -31.000000L197.000000 -0.000000C238.000000 -3.000000,290.000000 -3.000000,332.000000 -3.000000C374.000000 -3.000000,427.000000 -3.000000,468.000000 -0.000000L468.000000 -31.000000L447.000000 -31.000000C373.000000 -31.000000,371.000000 -42.000000,371.000000 -78.000000L371.000000 -165.000000L471.000000 -165.000000L471.000000 -196.000000L371.000000 -196.000000L371.000000 -651.000000C371.000000 -671.000000,371.000000 -677.000000,355.000000 -677.000000C346.000000 -677.000000,343.000000 -677.000000,335.000000 -665.000000L28.000000 -196.000000L28.000000 -165.000000M300.000000 -196.000000L56.000000 -196.000000L300.000000 -569.000000"></path>
    </g>
    <g transform="scale(0.009963,0.009963)" id="GLYPHcmr10_122">
      <path style="fill-rule: evenodd;" d="M390.000000 -401.000000C399.000000 -412.000000,399.000000 -414.000000,399.000000 -418.000000C399.000000 -431.000000,391.000000 -431.000000,373.000000 -431.000000L53.000000 -431.000000L42.000000 -270.000000L67.000000 -270.000000C73.000000 -372.000000,92.000000 -409.000000,202.000000 -409.000000L316.000000 -409.000000L37.000000 -32.000000C28.000000 -21.000000,28.000000 -19.000000,28.000000 -14.000000C28.000000 -0.000000,35.000000 -0.000000,54.000000 -0.000000L384.000000 -0.000000L401.000000 -187.000000L376.000000 -187.000000C367.000000 -69.000000,346.000000 -25.000000,230.000000 -25.000000L112.000000 -25.000000"></path>
    </g>
  </defs>
  <path d="M6.000000 91.000000C32.764633 92.845428,57.409393 76.415588,66.000000 51.000000C73.098755 29.998123,65.762527 6.424820,46.000000 1.000000C31.357147 -3.019470,16.480637 6.497803,16.000000 21.000000C15.628952 32.195786,24.804214 41.371048,36.000000 41.000000" style="stroke:rgb(0.000000%,0.000000%,0.000000%); stroke-width: 0.500000;stroke-linecap: round;stroke-linejoin: round;stroke-miterlimit: 10.000000;fill: none;"></path>
  <g transform="translate(-0.998047 94.796997)" style="fill: rgb(0.000000%,0.000000%,0.000000%);">
    <use xlink:href="#GLYPHcmsy10_112"></use>
  </g>
  <path d="M7.304153 94.597687L12.998047 94.597687" style="stroke:rgb(0.000000%,0.000000%,0.000000%); stroke-width: 0.398499;stroke-linejoin: round;stroke-miterlimit: 10.000000;fill: none;"></path>
  <g transform="translate(7.304153 101.972794)" style="fill: rgb(0.000000%,0.000000%,0.000000%);">
    <use xlink:href="#GLYPHcmmi10_120"></use>
  </g>
  <path d="M6.000000 91.000000l0 0" style="stroke:rgb(0.000000%,0.000000%,0.000000%); stroke-width: 3.000000;stroke-linecap: round;stroke-linejoin: round;stroke-miterlimit: 10.000000;fill: none;"></path>
  <g transform="translate(69.000000 54.210190)" style="fill: rgb(0.000000%,0.000000%,0.000000%);">
    <use xlink:href="#GLYPHcmr10_122"></use>
    <use xlink:href="#GLYPHcmr10_49" x="4.444529"></use>
  </g>
  <path d="M66.000000 51.000000l0 0" style="stroke:rgb(0.000000%,0.000000%,0.000000%); stroke-width: 3.000000;stroke-linecap: round;stroke-linejoin: round;stroke-miterlimit: 10.000000;fill: none;"></path>
  <g transform="translate(41.295395 10.420364)" style="fill: rgb(0.000000%,0.000000%,0.000000%);">
    <use xlink:href="#GLYPHcmr10_122"></use>
    <use xlink:href="#GLYPHcmr10_50" x="4.444529"></use>
  </g>
  <path d="M46.000000 1.000000l0 0" style="stroke:rgb(0.000000%,0.000000%,0.000000%); stroke-width: 3.000000;stroke-linecap: round;stroke-linejoin: round;stroke-miterlimit: 10.000000;fill: none;"></path>
  <g transform="translate(19.000000 24.210190)" style="fill: rgb(0.000000%,0.000000%,0.000000%);">
    <use xlink:href="#GLYPHcmr10_122"></use>
    <use xlink:href="#GLYPHcmr10_51" x="4.444529"></use>
  </g>
  <path d="M16.000000 21.000000l0 0" style="stroke:rgb(0.000000%,0.000000%,0.000000%); stroke-width: 3.000000;stroke-linecap: round;stroke-linejoin: round;stroke-miterlimit: 10.000000;fill: none;"></path>
  <g transform="translate(31.295395 50.420364)" style="fill: rgb(0.000000%,0.000000%,0.000000%);">
    <use xlink:href="#GLYPHcmr10_122"></use>
    <use xlink:href="#GLYPHcmr10_52" x="4.444529"></use>
  </g>
  <path d="M36.000000 41.000000l0 0" style="stroke:rgb(0.000000%,0.000000%,0.000000%); stroke-width: 3.000000;stroke-linecap: round;stroke-linejoin: round;stroke-miterlimit: 10.000000;fill: none;"></path>
</svg>
