<?xml version="1.0"?>
<!-- Created by MetaPost 2.000 on 2018.02.01:1437 -->
<svg version="1.1" xmlns="http://www.w3.org/2000/svg" xmlns:xlink="http://www.w3.org/1999/xlink" width="136.967209" height="137.730423" viewBox="0 0 136.967209 137.730423">
<!-- Original BoundingBox: -1.667328 -1.417328 135.299881 136.313095 -->
  <path d="M2.417328 136.000000C2.417328 135.624084,2.267960 135.263611,2.002182 134.997818C1.736389 134.732040,1.375916 134.582672,1.000000 134.582672C0.624084 134.582672,0.263611 134.732040,-0.002182 134.997818C-0.267960 135.263611,-0.417328 135.624084,-0.417328 136.000000C-0.417328 136.375916,-0.267960 136.736389,-0.002182 137.002182C0.263611 137.267960,0.624084 137.417328,1.000000 137.417328C1.375916 137.417328,1.736389 137.267960,2.002182 137.002182C2.267960 136.736389,2.417328 136.375916,2.417328 136.000000Z" style="fill: rgb(100.000000%,0.000000%,0.000000%);stroke: none;"></path>
  <path d="M44.937027 65.133835C44.937027 64.757919,44.787659 64.397446,44.521881 64.131653C44.256088 63.865875,43.895615 63.716507,43.519699 63.716507C43.143784 63.716507,42.783310 63.865875,42.517517 64.131653C42.251740 64.397446,42.102371 64.757919,42.102371 65.133835C42.102371 65.509750,42.251740 65.870224,42.517517 66.136017C42.783310 66.401794,43.143784 66.551163,43.519699 66.551163C43.895615 66.551163,44.256088 66.401794,44.521881 66.136017C44.787659 65.870224,44.937027 65.509750,44.937027 65.133835Z" style="fill: rgb(0.000000%,0.000000%,100.000000%);stroke: none;"></path>
  <path d="M115.803192 50.960602C115.803192 50.584686,115.653824 50.224213,115.388046 49.958420C115.122253 49.692642,114.761780 49.543274,114.385864 49.543274C114.009949 49.543274,113.649475 49.692642,113.383682 49.958420C113.117905 50.224213,112.968536 50.584686,112.968536 50.960602C112.968536 51.336517,113.117905 51.696991,113.383682 51.962784C113.649475 52.228561,114.009949 52.377930,114.385864 52.377930C114.761780 52.377930,115.122253 52.228561,115.388046 51.962784C115.653824 51.696991,115.803192 51.336517,115.803192 50.960602Z" style="stroke:rgb(100.000000%,0.000000%,0.000000%); stroke-width: 0.500000;stroke-linecap: round;stroke-linejoin: round;stroke-miterlimit: 10.000000;fill: none;"></path>
  <path d="M115.803192 43.873978C115.803192 43.498062,115.653824 43.137589,115.388046 42.871796C115.122253 42.606018,114.761780 42.456650,114.385864 42.456650C114.009949 42.456650,113.649475 42.606018,113.383682 42.871796C113.117905 43.137589,112.968536 43.498062,112.968536 43.873978C112.968536 44.249893,113.117905 44.610367,113.383682 44.876160C113.649475 45.141937,114.009949 45.291306,114.385864 45.291306C114.761780 45.291306,115.122253 45.141937,115.388046 44.876160C115.653824 44.610367,115.803192 44.249893,115.803192 43.873978Z" style="stroke:rgb(100.000000%,0.000000%,0.000000%); stroke-width: 0.500000;stroke-linecap: round;stroke-linejoin: round;stroke-miterlimit: 10.000000;fill: none;"></path>
  <path d="M115.803192 36.787354C115.803192 36.411438,115.653824 36.050964,115.388046 35.785172C115.122253 35.519394,114.761780 35.370026,114.385864 35.370026C114.009949 35.370026,113.649475 35.519394,113.383682 35.785172C113.117905 36.050964,112.968536 36.411438,112.968536 36.787354C112.968536 37.163269,113.117905 37.523743,113.383682 37.789536C113.649475 38.055313,114.009949 38.204681,114.385864 38.204681C114.761780 38.204681,115.122253 38.055313,115.388046 37.789536C115.653824 37.523743,115.803192 37.163269,115.803192 36.787354Z" style="stroke:rgb(100.000000%,0.000000%,0.000000%); stroke-width: 0.500000;stroke-linecap: round;stroke-linejoin: round;stroke-miterlimit: 10.000000;fill: none;"></path>
  <path d="M115.803192 29.700729C115.803192 29.324814,115.653824 28.964340,115.388046 28.698547C115.122253 28.432770,114.761780 28.283401,114.385864 28.283401C114.009949 28.283401,113.649475 28.432770,113.383682 28.698547C113.117905 28.964340,112.968536 29.324814,112.968536 29.700729C112.968536 30.076645,113.117905 30.437119,113.383682 30.702911C113.649475 30.968689,114.009949 31.118057,114.385864 31.118057C114.761780 31.118057,115.122253 30.968689,115.388046 30.702911C115.653824 30.437119,115.803192 30.076645,115.803192 29.700729Z" style="stroke:rgb(100.000000%,0.000000%,0.000000%); stroke-width: 0.500000;stroke-linecap: round;stroke-linejoin: round;stroke-miterlimit: 10.000000;fill: none;"></path>
  <path d="M115.803192 22.614105C115.803192 22.238190,115.653824 21.877716,115.388046 21.611923C115.122253 21.346146,114.761780 21.196777,114.385864 21.196777C114.009949 21.196777,113.649475 21.346146,113.383682 21.611923C113.117905 21.877716,112.968536 22.238190,112.968536 22.614105C112.968536 22.990021,113.117905 23.350494,113.383682 23.616287C113.649475 23.882065,114.009949 24.031433,114.385864 24.031433C114.761780 24.031433,115.122253 23.882065,115.388046 23.616287C115.653824 23.350494,115.803192 22.990021,115.803192 22.614105Z" style="stroke:rgb(100.000000%,0.000000%,0.000000%); stroke-width: 0.500000;stroke-linecap: round;stroke-linejoin: round;stroke-miterlimit: 10.000000;fill: none;"></path>
  <path d="M115.803192 15.527481C115.803192 15.151566,115.653824 14.791092,115.388046 14.525299C115.122253 14.259521,114.761780 14.110153,114.385864 14.110153C114.009949 14.110153,113.649475 14.259521,113.383682 14.525299C113.117905 14.791092,112.968536 15.151566,112.968536 15.527481C112.968536 15.903397,113.117905 16.263870,113.383682 16.529663C113.649475 16.795441,114.009949 16.944809,114.385864 16.944809C114.761780 16.944809,115.122253 16.795441,115.388046 16.529663C115.653824 16.263870,115.803192 15.903397,115.803192 15.527481Z" style="stroke:rgb(100.000000%,0.000000%,0.000000%); stroke-width: 0.500000;stroke-linecap: round;stroke-linejoin: round;stroke-miterlimit: 10.000000;fill: none;"></path>
  <path d="M115.803192 8.440857C115.803192 8.064941,115.653824 7.704468,115.388046 7.438675C115.122253 7.172897,114.761780 7.023529,114.385864 7.023529C114.009949 7.023529,113.649475 7.172897,113.383682 7.438675C113.117905 7.704468,112.968536 8.064941,112.968536 8.440857C112.968536 8.816772,113.117905 9.177246,113.383682 9.443039C113.649475 9.708817,114.009949 9.858185,114.385864 9.858185C114.761780 9.858185,115.122253 9.708817,115.388046 9.443039C115.653824 9.177246,115.803192 8.816772,115.803192 8.440857Z" style="stroke:rgb(100.000000%,0.000000%,0.000000%); stroke-width: 0.500000;stroke-linecap: round;stroke-linejoin: round;stroke-miterlimit: 10.000000;fill: none;"></path>
  <path d="M115.803192 1.354233C115.803192 0.978317,115.653824 0.617844,115.388046 0.352051C115.122253 0.086273,114.761780 -0.063095,114.385864 -0.063095C114.009949 -0.063095,113.649475 0.086273,113.383682 0.352051C113.117905 0.617844,112.968536 0.978317,112.968536 1.354233C112.968536 1.730148,113.117905 2.090622,113.383682 2.356415C113.649475 2.622192,114.009949 2.771561,114.385864 2.771561C114.761780 2.771561,115.122253 2.622192,115.388046 2.356415C115.653824 2.090622,115.803192 1.730148,115.803192 1.354233Z" style="stroke:rgb(100.000000%,0.000000%,0.000000%); stroke-width: 0.500000;stroke-linecap: round;stroke-linejoin: round;stroke-miterlimit: 10.000000;fill: none;"></path>
  <path d="M2.417328 8.440903C2.417328 8.064987,2.267960 7.704514,2.002182 7.438721C1.736389 7.172943,1.375916 7.023575,1.000000 7.023575C0.624084 7.023575,0.263611 7.172943,-0.002182 7.438721C-0.267960 7.704514,-0.417328 8.064987,-0.417328 8.440903C-0.417328 8.816818,-0.267960 9.177292,-0.002182 9.443085C0.263611 9.708862,0.624084 9.858231,1.000000 9.858231C1.375916 9.858231,1.736389 9.708862,2.002182 9.443085C2.267960 9.177292,2.417328 8.816818,2.417328 8.440903Z" style="stroke:rgb(0.000000%,100.000000%,0.000000%); stroke-width: 0.500000;stroke-linecap: round;stroke-linejoin: round;stroke-miterlimit: 10.000000;fill: none;"></path>
  <path d="M16.590576 15.527527C16.590576 15.151611,16.441208 14.791138,16.175430 14.525345C15.909637 14.259567,15.549164 14.110199,15.173248 14.110199C14.797333 14.110199,14.436859 14.259567,14.171066 14.525345C13.905289 14.791138,13.755920 15.151611,13.755920 15.527527C13.755920 15.903442,13.905289 16.263916,14.171066 16.529709C14.436859 16.795486,14.797333 16.944855,15.173248 16.944855C15.549164 16.944855,15.909637 16.795486,16.175430 16.529709C16.441208 16.263916,16.590576 15.903442,16.590576 15.527527Z" style="stroke:rgb(0.000000%,100.000000%,0.000000%); stroke-width: 0.500000;stroke-linecap: round;stroke-linejoin: round;stroke-miterlimit: 10.000000;fill: none;"></path>
  <path d="M30.763824 22.614151C30.763824 22.238235,30.614456 21.877762,30.348679 21.611969C30.082886 21.346191,29.722412 21.196823,29.346497 21.196823C28.970581 21.196823,28.610107 21.346191,28.344315 21.611969C28.078537 21.877762,27.929169 22.238235,27.929169 22.614151C27.929169 22.990067,28.078537 23.350540,28.344315 23.616333C28.610107 23.882111,28.970581 24.031479,29.346497 24.031479C29.722412 24.031479,30.082886 23.882111,30.348679 23.616333C30.614456 23.350540,30.763824 22.990067,30.763824 22.614151Z" style="stroke:rgb(0.000000%,100.000000%,0.000000%); stroke-width: 0.500000;stroke-linecap: round;stroke-linejoin: round;stroke-miterlimit: 10.000000;fill: none;"></path>
  <path d="M44.937073 29.700775C44.937073 29.324860,44.787704 28.964386,44.521927 28.698593C44.256134 28.432816,43.895660 28.283447,43.519745 28.283447C43.143829 28.283447,42.783356 28.432816,42.517563 28.698593C42.251785 28.964386,42.102417 29.324860,42.102417 29.700775C42.102417 30.076691,42.251785 30.437164,42.517563 30.702957C42.783356 30.968735,43.143829 31.118103,43.519745 31.118103C43.895660 31.118103,44.256134 30.968735,44.521927 30.702957C44.787704 30.437164,44.937073 30.076691,44.937073 29.700775Z" style="stroke:rgb(0.000000%,100.000000%,0.000000%); stroke-width: 0.500000;stroke-linecap: round;stroke-linejoin: round;stroke-miterlimit: 10.000000;fill: none;"></path>
  <path d="M59.110321 36.787399C59.110321 36.411484,58.960953 36.051010,58.695175 35.785217C58.429382 35.519440,58.068909 35.370071,57.692993 35.370071C57.317078 35.370071,56.956604 35.519440,56.690811 35.785217C56.425034 36.051010,56.275665 36.411484,56.275665 36.787399C56.275665 37.163315,56.425034 37.523788,56.690811 37.789581C56.956604 38.055359,57.317078 38.204727,57.692993 38.204727C58.068909 38.204727,58.429382 38.055359,58.695175 37.789581C58.960953 37.523788,59.110321 37.163315,59.110321 36.787399Z" style="stroke:rgb(0.000000%,100.000000%,0.000000%); stroke-width: 0.500000;stroke-linecap: round;stroke-linejoin: round;stroke-miterlimit: 10.000000;fill: none;"></path>
  <path d="M73.283569 43.874023C73.283569 43.498108,73.134201 43.137634,72.868423 42.871841C72.602631 42.606064,72.242157 42.456696,71.866241 42.456696C71.490326 42.456696,71.129852 42.606064,70.864059 42.871841C70.598282 43.137634,70.448914 43.498108,70.448914 43.874023C70.448914 44.249939,70.598282 44.610413,70.864059 44.876205C71.129852 45.141983,71.490326 45.291351,71.866241 45.291351C72.242157 45.291351,72.602631 45.141983,72.868423 44.876205C73.134201 44.610413,73.283569 44.249939,73.283569 43.874023Z" style="stroke:rgb(0.000000%,100.000000%,0.000000%); stroke-width: 0.500000;stroke-linecap: round;stroke-linejoin: round;stroke-miterlimit: 10.000000;fill: none;"></path>
  <path d="M71.866165 121.826767L100.212631 65.133835L107.299255 65.133835C95.363678 73.293396,100.014664 91.897415,114.385864 93.480301C119.142349 94.004181,124.046066 91.727249,128.559097 93.480301C144.869141 99.815826,135.397781 133.528320,100.212631 128.913376C90.523972 127.642593,81.013000 125.264847,71.866165 121.826767Z" style="fill: rgb(0.000000%,0.000000%,0.000000%);stroke: none;"></path>
</svg>
