<?xml version="1.0"?>
<!-- Created by MetaPost 2.000 on 2018.02.01:1754 -->
<svg version="1.1" xmlns="http://www.w3.org/2000/svg" xmlns:xlink="http://www.w3.org/1999/xlink" width="566.927902" height="569.446426" viewBox="0 0 566.927902 569.446426">
<!-- Original BoundingBox: -45.926331 -48.444855 521.001572 521.001572 -->
  <path d="M45.000000 521.000000L45.000000 24.891434" style="stroke:rgb(10.000610%,10.000610%,10.000610%); stroke-width: 0.175034;stroke-linecap: round;stroke-linejoin: round;stroke-miterlimit: 10.000000;fill: none;"></path>
  <path d="M94.610855 521.000000L94.610855 24.891434" style="stroke:rgb(10.000610%,10.000610%,10.000610%); stroke-width: 0.175034;stroke-linecap: round;stroke-linejoin: round;stroke-miterlimit: 10.000000;fill: none;"></path>
  <path d="M144.221710 521.000000L144.221710 24.891434" style="stroke:rgb(10.000610%,10.000610%,10.000610%); stroke-width: 0.175034;stroke-linecap: round;stroke-linejoin: round;stroke-miterlimit: 10.000000;fill: none;"></path>
  <path d="M193.832565 521.000000L193.832565 24.891434" style="stroke:rgb(10.000610%,10.000610%,10.000610%); stroke-width: 0.175034;stroke-linecap: round;stroke-linejoin: round;stroke-miterlimit: 10.000000;fill: none;"></path>
  <path d="M243.443436 521.000000L243.443436 24.891434" style="stroke:rgb(10.000610%,10.000610%,10.000610%); stroke-width: 0.175034;stroke-linecap: round;stroke-linejoin: round;stroke-miterlimit: 10.000000;fill: none;"></path>
  <path d="M293.054291 521.000000L293.054291 24.891434" style="stroke:rgb(10.000610%,10.000610%,10.000610%); stroke-width: 0.175034;stroke-linecap: round;stroke-linejoin: round;stroke-miterlimit: 10.000000;fill: none;"></path>
  <path d="M342.665146 521.000000L342.665146 24.891434" style="stroke:rgb(10.000610%,10.000610%,10.000610%); stroke-width: 0.175034;stroke-linecap: round;stroke-linejoin: round;stroke-miterlimit: 10.000000;fill: none;"></path>
  <path d="M392.276001 521.000000L392.276001 24.891434" style="stroke:rgb(10.000610%,10.000610%,10.000610%); stroke-width: 0.175034;stroke-linecap: round;stroke-linejoin: round;stroke-miterlimit: 10.000000;fill: none;"></path>
  <path d="M441.886856 521.000000L441.886856 24.891434" style="stroke:rgb(10.000610%,10.000610%,10.000610%); stroke-width: 0.175034;stroke-linecap: round;stroke-linejoin: round;stroke-miterlimit: 10.000000;fill: none;"></path>
  <path d="M491.497711 521.000000L491.497711 24.891434" style="stroke:rgb(10.000610%,10.000610%,10.000610%); stroke-width: 0.175034;stroke-linecap: round;stroke-linejoin: round;stroke-miterlimit: 10.000000;fill: none;"></path>
  <path d="M541.108566 521.000000L541.108566 24.891434" style="stroke:rgb(10.000610%,10.000610%,10.000610%); stroke-width: 0.175034;stroke-linecap: round;stroke-linejoin: round;stroke-miterlimit: 10.000000;fill: none;"></path>
  <path d="M45.000000 521.000000L541.108566 521.000000" style="stroke:rgb(10.000610%,10.000610%,10.000610%); stroke-width: 0.175034;stroke-linecap: round;stroke-linejoin: round;stroke-miterlimit: 10.000000;fill: none;"></path>
  <path d="M45.000000 471.389145L541.108566 471.389145" style="stroke:rgb(10.000610%,10.000610%,10.000610%); stroke-width: 0.175034;stroke-linecap: round;stroke-linejoin: round;stroke-miterlimit: 10.000000;fill: none;"></path>
  <path d="M45.000000 421.778290L541.108566 421.778290" style="stroke:rgb(10.000610%,10.000610%,10.000610%); stroke-width: 0.175034;stroke-linecap: round;stroke-linejoin: round;stroke-miterlimit: 10.000000;fill: none;"></path>
  <path d="M45.000000 372.167435L541.108566 372.167435" style="stroke:rgb(10.000610%,10.000610%,10.000610%); stroke-width: 0.175034;stroke-linecap: round;stroke-linejoin: round;stroke-miterlimit: 10.000000;fill: none;"></path>
  <path d="M45.000000 322.556564L541.108566 322.556564" style="stroke:rgb(10.000610%,10.000610%,10.000610%); stroke-width: 0.175034;stroke-linecap: round;stroke-linejoin: round;stroke-miterlimit: 10.000000;fill: none;"></path>
  <path d="M45.000000 272.945709L541.108566 272.945709" style="stroke:rgb(10.000610%,10.000610%,10.000610%); stroke-width: 0.175034;stroke-linecap: round;stroke-linejoin: round;stroke-miterlimit: 10.000000;fill: none;"></path>
  <path d="M45.000000 223.334854L541.108566 223.334854" style="stroke:rgb(10.000610%,10.000610%,10.000610%); stroke-width: 0.175034;stroke-linecap: round;stroke-linejoin: round;stroke-miterlimit: 10.000000;fill: none;"></path>
  <path d="M45.000000 173.723999L541.108566 173.723999" style="stroke:rgb(10.000610%,10.000610%,10.000610%); stroke-width: 0.175034;stroke-linecap: round;stroke-linejoin: round;stroke-miterlimit: 10.000000;fill: none;"></path>
  <path d="M45.000000 124.113144L541.108566 124.113144" style="stroke:rgb(10.000610%,10.000610%,10.000610%); stroke-width: 0.175034;stroke-linecap: round;stroke-linejoin: round;stroke-miterlimit: 10.000000;fill: none;"></path>
  <path d="M45.000000 74.502289L541.108566 74.502289" style="stroke:rgb(10.000610%,10.000610%,10.000610%); stroke-width: 0.175034;stroke-linecap: round;stroke-linejoin: round;stroke-miterlimit: 10.000000;fill: none;"></path>
  <path d="M45.000000 24.891434L541.108566 24.891434" style="stroke:rgb(10.000610%,10.000610%,10.000610%); stroke-width: 0.175034;stroke-linecap: round;stroke-linejoin: round;stroke-miterlimit: 10.000000;fill: none;"></path>
  <g transform="matrix(3.500320,-0.000000,-0.000000,3.500320,23.879135 544.639389)" style="fill: rgb(0.000000%,0.000000%,0.000000%);">
    <text font-size="9.962646">0</text>
  </g>
  <g transform="matrix(3.500320,-0.000000,-0.000000,3.500320,23.879135 482.625839)" style="fill: rgb(0.000000%,0.000000%,0.000000%);">
    <text font-size="9.962646">1</text>
  </g>
  <g transform="matrix(3.500320,-0.000000,-0.000000,3.500320,23.879135 433.014984)" style="fill: rgb(0.000000%,0.000000%,0.000000%);">
    <text font-size="9.962646">2</text>
  </g>
  <g transform="matrix(3.500320,-0.000000,-0.000000,3.500320,23.879135 234.571548)" style="fill: rgb(0.000000%,0.000000%,0.000000%);">
    <text font-size="9.962646">6</text>
  </g>
  <g transform="matrix(3.500320,-0.000000,-0.000000,3.500320,23.879135 85.738983)" style="fill: rgb(0.000000%,0.000000%,0.000000%);">
    <text font-size="9.962646">9</text>
  </g>
  <g transform="matrix(3.500320,-0.000000,-0.000000,3.500320,85.892685 544.639389)" style="fill: rgb(0.000000%,0.000000%,0.000000%);">
    <text font-size="9.962646">1</text>
  </g>
  <g transform="matrix(3.500320,-0.000000,-0.000000,3.500320,482.779541 544.639389)" style="fill: rgb(0.000000%,0.000000%,0.000000%);">
    <text font-size="9.962646">9</text>
  </g>
  <g transform="matrix(3.500320,-0.000000,-0.000000,3.500320,23.879135 544.639389)" style="fill: rgb(0.000000%,0.000000%,0.000000%);">
    <text font-size="9.962646">0</text>
  </g>
  <path d="M49.961105 521.000000C49.961105 519.684174,49.438263 518.422409,48.507965 517.492035C47.577591 516.561737,46.315826 516.038895,45.000000 516.038895C43.684174 516.038895,42.422409 516.561737,41.492035 517.492035C40.561737 518.422409,40.038895 519.684174,40.038895 521.000000C40.038895 522.315826,40.561737 523.577591,41.492035 524.507965C42.422409 525.438263,43.684174 525.961105,45.000000 525.961105C46.315826 525.961105,47.577591 525.438263,48.507965 524.507965C49.438263 523.577591,49.961105 522.315826,49.961105 521.000000Z" style="fill: rgb(100.000000%,0.000000%,0.000000%);stroke: none;"></path>
  <path d="M198.793671 272.945709C198.793671 271.629883,198.270844 270.368118,197.340530 269.437759C196.410172 268.507446,195.148392 267.984619,193.832565 267.984619C192.516754 267.984619,191.254974 268.507446,190.324615 269.437759C189.394302 270.368118,188.871475 271.629883,188.871475 272.945709C188.871475 274.261536,189.394302 275.523315,190.324615 276.453674C191.254974 277.383972,192.516754 277.906815,193.832565 277.906815C195.148392 277.906815,196.410172 277.383972,197.340530 276.453674C198.270844 275.523315,198.793671 274.261536,198.793671 272.945709Z" style="fill: rgb(0.000000%,0.000000%,100.000000%);stroke: none;"></path>
  <path d="M254.605881 359.764725C254.605881 358.448898,254.083038 357.187134,253.152740 356.256775C252.222382 355.326462,250.960602 354.803619,249.644775 354.803619C248.328949 354.803619,247.067184 355.326462,246.136826 356.256775C245.206512 357.187134,244.683670 358.448898,244.683670 359.764725C244.683670 361.080551,245.206512 362.342331,246.136826 363.272690C247.067184 364.202988,248.328949 364.725830,249.644775 364.725830C250.960602 364.725830,252.222382 364.202988,253.152740 363.272690C254.083038 362.342331,254.605881 361.080551,254.605881 359.764725Z" style="fill: rgb(0.000000%,100.000000%,0.000000%);stroke: none;"></path>
  <path d="M446.847961 223.334854C446.847961 222.019028,446.325119 220.757263,445.394821 219.826904C444.464462 218.896591,443.202682 218.373749,441.886856 218.373749C440.571030 218.373749,439.309265 218.896591,438.378906 219.826904C437.448593 220.757263,436.925751 222.019028,436.925751 223.334854C436.925751 224.650681,437.448593 225.912460,438.378906 226.842819C439.309265 227.773117,440.571030 228.295959,441.886856 228.295959C443.202682 228.295959,444.464462 227.773117,445.394821 226.842819C446.325119 225.912460,446.847961 224.650681,446.847961 223.334854Z" style="stroke:rgb(100.000000%,0.000000%,0.000000%); stroke-width: 1.750168;stroke-linecap: round;stroke-linejoin: round;stroke-miterlimit: 10.000000;fill: none;"></path>
  <path d="M446.847961 198.529404C446.847961 197.213577,446.325119 195.951797,445.394821 195.021439C444.464462 194.091141,443.202682 193.568298,441.886856 193.568298C440.571030 193.568298,439.309265 194.091141,438.378906 195.021439C437.448593 195.951797,436.925751 197.213577,436.925751 198.529404C436.925751 199.845230,437.448593 201.106995,438.378906 202.037354C439.309265 202.967667,440.571030 203.490509,441.886856 203.490509C443.202682 203.490509,444.464462 202.967667,445.394821 202.037354C446.325119 201.106995,446.847961 199.845230,446.847961 198.529404Z" style="stroke:rgb(100.000000%,0.000000%,0.000000%); stroke-width: 1.750168;stroke-linecap: round;stroke-linejoin: round;stroke-miterlimit: 10.000000;fill: none;"></path>
  <path d="M446.847961 173.723953C446.847961 172.408127,446.325119 171.146347,445.394821 170.215988C444.464462 169.285675,443.202682 168.762848,441.886856 168.762848C440.571030 168.762848,439.309265 169.285675,438.378906 170.215988C437.448593 171.146347,436.925751 172.408127,436.925751 173.723953C436.925751 175.039764,437.448593 176.301544,438.378906 177.231903C439.309265 178.162216,440.571030 178.685043,441.886856 178.685043C443.202682 178.685043,444.464462 178.162216,445.394821 177.231903C446.325119 176.301544,446.847961 175.039764,446.847961 173.723953Z" style="stroke:rgb(100.000000%,0.000000%,0.000000%); stroke-width: 1.750168;stroke-linecap: round;stroke-linejoin: round;stroke-miterlimit: 10.000000;fill: none;"></path>
  <path d="M446.847961 148.918488C446.847961 147.602661,446.325119 146.340897,445.394821 145.410538C444.464462 144.480225,443.202682 143.957382,441.886856 143.957382C440.571030 143.957382,439.309265 144.480225,438.378906 145.410538C437.448593 146.340897,436.925751 147.602661,436.925751 148.918488C436.925751 150.234314,437.448593 151.496094,438.378906 152.426453C439.309265 153.356750,440.571030 153.879593,441.886856 153.879593C443.202682 153.879593,444.464462 153.356750,445.394821 152.426453C446.325119 151.496094,446.847961 150.234314,446.847961 148.918488Z" style="stroke:rgb(100.000000%,0.000000%,0.000000%); stroke-width: 1.750168;stroke-linecap: round;stroke-linejoin: round;stroke-miterlimit: 10.000000;fill: none;"></path>
  <path d="M446.847961 124.113037C446.847961 122.797211,446.325119 121.535431,445.394821 120.605072C444.464462 119.674774,443.202682 119.151932,441.886856 119.151932C440.571030 119.151932,439.309265 119.674774,438.378906 120.605072C437.448593 121.535431,436.925751 122.797211,436.925751 124.113037C436.925751 125.428864,437.448593 126.690628,438.378906 127.620987C439.309265 128.551300,440.571030 129.074142,441.886856 129.074142C443.202682 129.074142,444.464462 128.551300,445.394821 127.620987C446.325119 126.690628,446.847961 125.428864,446.847961 124.113037Z" style="stroke:rgb(100.000000%,0.000000%,0.000000%); stroke-width: 1.750168;stroke-linecap: round;stroke-linejoin: round;stroke-miterlimit: 10.000000;fill: none;"></path>
  <path d="M446.847961 99.307587C446.847961 97.991760,446.325119 96.729980,445.394821 95.799622C444.464462 94.869308,443.202682 94.346481,441.886856 94.346481C440.571030 94.346481,439.309265 94.869308,438.378906 95.799622C437.448593 96.729980,436.925751 97.991760,436.925751 99.307587C436.925751 100.623398,437.448593 101.885178,438.378906 102.815536C439.309265 103.745850,440.571030 104.268677,441.886856 104.268677C443.202682 104.268677,444.464462 103.745850,445.394821 102.815536C446.325119 101.885178,446.847961 100.623398,446.847961 99.307587Z" style="stroke:rgb(100.000000%,0.000000%,0.000000%); stroke-width: 1.750168;stroke-linecap: round;stroke-linejoin: round;stroke-miterlimit: 10.000000;fill: none;"></path>
  <path d="M446.847961 74.502121C446.847961 73.186295,446.325119 71.924530,445.394821 70.994171C444.464462 70.063858,443.202682 69.541016,441.886856 69.541016C440.571030 69.541016,439.309265 70.063858,438.378906 70.994171C437.448593 71.924530,436.925751 73.186295,436.925751 74.502121C436.925751 75.817947,437.448593 77.079727,438.378906 78.010086C439.309265 78.940384,440.571030 79.463226,441.886856 79.463226C443.202682 79.463226,444.464462 78.940384,445.394821 78.010086C446.325119 77.079727,446.847961 75.817947,446.847961 74.502121Z" style="stroke:rgb(100.000000%,0.000000%,0.000000%); stroke-width: 1.750168;stroke-linecap: round;stroke-linejoin: round;stroke-miterlimit: 10.000000;fill: none;"></path>
  <path d="M446.847961 49.696671C446.847961 48.380844,446.325119 47.119064,445.394821 46.188705C444.464462 45.258408,443.202682 44.735565,441.886856 44.735565C440.571030 44.735565,439.309265 45.258408,438.378906 46.188705C437.448593 47.119064,436.925751 48.380844,436.925751 49.696671C436.925751 51.012497,437.448593 52.274261,438.378906 53.204620C439.309265 54.134933,440.571030 54.657776,441.886856 54.657776C443.202682 54.657776,444.464462 54.134933,445.394821 53.204620C446.325119 52.274261,446.847961 51.012497,446.847961 49.696671Z" style="stroke:rgb(100.000000%,0.000000%,0.000000%); stroke-width: 1.750168;stroke-linecap: round;stroke-linejoin: round;stroke-miterlimit: 10.000000;fill: none;"></path>
  <path d="M293.054291 471.389145L392.276001 272.945709L417.081451 272.945709C375.303116 301.506790,391.583054 366.626816,441.886856 372.167435C458.536072 374.001175,475.700653 366.031189,491.497711 372.167435C548.588089 394.343796,515.435303 512.348328,392.276001 496.194550C358.362595 491.746399,325.071136 483.423523,293.054291 471.389145Z" style="fill: rgb(0.000000%,0.000000%,0.000000%);stroke: none;"></path>
  <path d="M293.054291 497.707886L518.592941 497.707886L518.592941 272.945709L293.054291 272.945709Z" style="stroke:rgb(0.000000%,0.000000%,100.000000%); stroke-width: 1.750168;stroke-linecap: round;stroke-linejoin: round;stroke-miterlimit: 10.000000;fill: none;"></path>
</svg>
